<?xml version="1.0" encoding="UTF-8" standalone="no"?>
<svg
   width="100%"
   height="100%"
   viewBox="0 0 192 192"
   version="1.1"
   xml:space="preserve"
   style="fill-rule:evenodd;clip-rule:evenodd;stroke-linejoin:round;stroke-miterlimit:1.41421;"
   id="svg46"
   sodipodi:docname="elonmusk.svg"
   inkscape:version="1.1.1 (3bf5ae0d25, 2021-09-20)"
   xmlns:inkscape="http://www.inkscape.org/namespaces/inkscape"
   xmlns:sodipodi="http://sodipodi.sourceforge.net/DTD/sodipodi-0.dtd"
   xmlns:xlink="http://www.w3.org/1999/xlink"
   xmlns="http://www.w3.org/2000/svg"
   xmlns:svg="http://www.w3.org/2000/svg"><sodipodi:namedview
     id="namedview48"
     pagecolor="#505050"
     bordercolor="#eeeeee"
     borderopacity="1"
     inkscape:pageshadow="0"
     inkscape:pageopacity="0"
     inkscape:pagecheckerboard="0"
     showgrid="false"
     inkscape:zoom="2.1666667"
     inkscape:cx="155.30769"
     inkscape:cy="140.53846"
     inkscape:window-width="1920"
     inkscape:window-height="1017"
     inkscape:window-x="-8"
     inkscape:window-y="-8"
     inkscape:window-maximized="1"
     inkscape:current-layer="svg46" /><defs
     id="defs44"><linearGradient
       id="_Linear1"
       x1="0"
       y1="0"
       x2="1"
       y2="0"
       gradientUnits="userSpaceOnUse"
       gradientTransform="matrix(0,72.75,-72.75,0,63,63)"
       inkscape:swatch="gradient"><stop
         offset="0%"
         style="stop-color:#f1bf6f;stop-opacity:1"
         id="stop19" /><stop
         offset="100%"
         style="stop-color:#c39b5a;stop-opacity:1"
         id="stop21" /></linearGradient><linearGradient
       id="b"
       x1="960"
       y1="417.45999"
       x2="960"
       y2="183.55"
       gradientUnits="userSpaceOnUse"><stop
         offset="0"
         stop-color="#462523"
         id="stop1217" /><stop
         offset=".2"
         stop-color="#ca9b50"
         id="stop1219" /><stop
         offset=".4"
         stop-color="#f5e17a"
         id="stop1221" /><stop
         offset=".5"
         stop-color="#f5f2c0"
         id="stop1223" /><stop
         offset=".6"
         stop-color="#f5e17b"
         id="stop1225" /><stop
         offset=".8"
         stop-color="#c99a4f"
         id="stop1227" /><stop
         offset="1"
         stop-color="#462523"
         id="stop1229" /></linearGradient><linearGradient
       inkscape:collect="always"
       xlink:href="#b"
       id="linearGradient4218"
       x1="49.625526"
       y1="154.15384"
       x2="163.14371"
       y2="38.769234"
       gradientUnits="userSpaceOnUse" /><linearGradient
       inkscape:collect="always"
       xlink:href="#b"
       id="linearGradient5289"
       x1="9.2016888"
       y1="96.372215"
       x2="183.99844"
       y2="96.372215"
       gradientUnits="userSpaceOnUse" /></defs><path
     id="white_background"
     style="fill:url(#linearGradient4218);stroke-width:2;fill-opacity:1;font-variation-settings:normal;opacity:1;stroke-linecap:butt;stroke-linejoin:miter;stroke-miterlimit:4;stroke-dasharray:none;stroke-dashoffset:0;stroke-opacity:1;stop-color:#000000;stop-opacity:1;stroke:url(#linearGradient5289)"
     class="st0"
     d="M 110.12207,23.289235 C 102.55638,23.057378 94.900938,25.711046 88.950197,31.304859 81.273331,38.519476 78.019902,49.274154 80.401369,59.537281 56.639364,58.349474 34.503631,47.124989 19.500978,28.664235 c -7.840702,13.50473 -3.837482,30.779598 9.146484,39.457031 -4.704421,-0.140431 -9.304519,-1.411372 -13.41211,-3.699219 v 0.375 c 0,14.066452 9.919488,26.177677 23.70508,28.962891 -4.347493,1.187808 -8.912385,1.36405 -13.341797,0.509765 3.873541,12.036057 14.960875,20.279627 27.605468,20.519527 -10.467922,8.22103 -23.39346,12.68553 -36.699218,12.67383 -2.35221,-0.006 -4.698547,-0.14493 -7.0332045,-0.42579 13.5164335,8.67158 29.2390395,13.2695 45.2949225,13.2461 v 0.0234 c 8.638825,0 16.64939,-1.14646 24.023438,-3.2168 l -9.748047,31.63476 43.347656,-30.49609 43.34766,30.49609 -15.60743,-50.65039 42.39844,-31.802724 -49.06836,-0.746093 c 3.55913,-9.617113 5.38477,-19.638315 5.38477,-29.294922 0,-1.281428 -9e-5,-2.550588 -0.0879,-3.820313 5.78106,-4.183658 10.77698,-9.363703 14.74414,-15.308593 -5.38902,2.393169 -11.11163,3.961893 -16.96875,4.652343 6.16724,-3.692151 10.7843,-9.501663 12.99023,-16.341797 -5.80446,3.440546 -12.14784,5.868996 -18.76562,7.173828 -5.59382,-5.947815 -13.06908,-9.065018 -20.63477,-9.296874 z" /></svg>
